<svg xmlns="http://www.w3.org/2000/svg" xmlns:xlink="http://www.w3.org/1999/xlink" width="500" zoomAndPan="magnify" viewBox="0 0 375 374.999991" height="500" preserveAspectRatio="xMidYMid meet" version="1.0"><defs><filter x="0%" y="0%" width="100%" height="100%" id="85e7263b83"><feColorMatrix values="0 0 0 0 1 0 0 0 0 1 0 0 0 0 1 0 0 0 1 0" color-interpolation-filters="sRGB"/></filter><mask id="118f14e455"><g filter="url(#85e7263b83)"><rect x="-37.5" width="450" fill="#000000" y="-37.499999" height="449.999989" fill-opacity="0.3"/></g></mask><clipPath id="f4ba6c1f50"><rect x="0" width="375" y="0" height="375"/></clipPath></defs><rect x="-37.5" width="450" fill="#ffffff" y="-37.499999" height="449.999989" fill-opacity="1"/><rect x="-37.5" width="450" fill="#002e3e" y="-37.499999" height="449.999989" fill-opacity="1"/><g mask="url(#118f14e455)"><g transform="matrix(1, 0, 0, 1, 0, 0)"><g clip-path="url(#f4ba6c1f50)"><path fill="#289a8f" d="M 49.445312 272.019531 C 61.613281 268.441406 73.1875 263.222656 84.507812 257.460938 C 90.347656 254.488281 96.121094 251.378906 101.875 248.269531 C 118.785156 239.136719 135.847656 229.925781 154.28125 224.464844 C 125.90625 227.308594 98.132812 234.789062 71.429688 244.792969 C 58 249.824219 44.75 255.515625 30.816406 258.894531 C 20.761719 261.332031 10.214844 262.496094 0 261.296875 L 0 274.398438 C 15.957031 278.449219 33.382812 276.746094 49.445312 272.019531 " fill-opacity="1" fill-rule="nonzero"/><path fill="#289a8f" d="M 325.347656 217.097656 C 327.617188 235.058594 337.480469 251.769531 351.625 262.964844 C 358.75 268.601562 366.671875 272.28125 375 274.398438 L 375 261.296875 C 371.046875 260.828125 367.144531 260.023438 363.34375 258.78125 C 344.667969 252.683594 329.90625 236.207031 325.347656 217.097656 " fill-opacity="1" fill-rule="nonzero"/><path fill="#289a8f" d="M 60.082031 129.476562 C 72.59375 125.757812 85.273438 123.167969 98.289062 123.613281 C 111.828125 124.074219 125.054688 127.839844 138.5625 128.875 C 124.683594 124.609375 113.855469 113.492188 100.269531 108.378906 C 85.265625 102.730469 68.316406 104.980469 53.210938 110.355469 C 38.105469 115.726562 24.242188 124.023438 9.699219 130.765625 C 6.511719 132.242188 3.273438 133.644531 0 134.960938 L 0 148.574219 C 8.363281 146.636719 16.617188 144.203125 24.746094 141.480469 C 36.46875 137.550781 48.203125 133.007812 60.082031 129.476562 " fill-opacity="1" fill-rule="nonzero"/><path fill="#289a8f" d="M 301.339844 145.757812 C 303.285156 146.410156 305.230469 147.0625 307.175781 147.71875 C 310.683594 148.894531 314.234375 150.453125 317.761719 151.449219 C 321.472656 152.496094 325.765625 152.609375 329.601562 152.867188 C 337.535156 153.40625 345.515625 153.148438 353.417969 152.292969 C 360.683594 151.503906 367.882812 150.214844 375 148.574219 L 375 134.960938 C 351.601562 144.375 326.195312 149.386719 301.339844 145.757812 " fill-opacity="1" fill-rule="nonzero"/><path fill="#234e52" d="M 228.660156 250.792969 C 262.714844 244.960938 297.140625 267.789062 330.984375 260.835938 C 311.46875 259.28125 295.445312 247.402344 279.933594 236.558594 C 269.144531 229.015625 257.960938 221.617188 245.335938 217.894531 C 232.707031 214.175781 218.246094 214.59375 207.328125 221.945312 C 195.566406 229.863281 188.734375 245 175.15625 249.082031 C 168.707031 251.019531 161.796875 250.054688 155.0625 250.003906 C 132.832031 249.84375 110.777344 260.582031 97.199219 278.183594 C 110.585938 270.589844 126.441406 268.8125 141.824219 268.199219 C 157.203125 267.589844 172.816406 267.953125 187.710938 264.074219 C 189.007812 263.734375 190.296875 263.367188 191.578125 262.972656 C 204.03125 259.140625 215.816406 252.988281 228.660156 250.792969 " fill-opacity="1" fill-rule="nonzero"/><path fill="#0f5640" d="M 186.53125 152.242188 C 194.375 150.445312 202.503906 149.964844 210.507812 150.710938 C 227.261719 152.269531 240.671875 164.515625 257.550781 166.714844 C 267.226562 167.972656 277.0625 167.253906 286.691406 169.03125 C 274.351562 166.75 264.953125 156.90625 257.058594 147.148438 C 249.167969 137.390625 241.328125 126.757812 229.839844 121.703125 C 216.539062 115.84375 200.804688 118.773438 187.761719 125.195312 C 174.726562 131.621094 163.574219 141.222656 151.597656 149.464844 C 139.625 157.707031 126.105469 164.816406 111.570312 165.113281 C 98.691406 165.378906 86.347656 160.28125 73.601562 158.449219 C 48.871094 154.890625 22.628906 164.574219 6.136719 183.34375 C 23.570312 169.308594 47.28125 163.402344 69.253906 167.621094 C 82.714844 170.203125 95.5 176.355469 109.1875 177.046875 C 136.449219 178.429688 159.925781 158.335938 186.53125 152.242188 " fill-opacity="1" fill-rule="nonzero"/><path fill="#289a8f" d="M 209.832031 187.113281 C 223.640625 186.492188 236.449219 193.621094 249.792969 197.203125 C 267.085938 201.84375 285.550781 200.476562 302.910156 196.097656 C 315.117188 193.019531 326.898438 188.5 338.464844 183.589844 C 348.179688 179.46875 353.664062 179.164062 364.042969 180.132812 C 348.621094 175.066406 331.136719 175.320312 315.648438 179.941406 C 305.726562 182.898438 296.308594 187.710938 286.078125 189.300781 C 256.09375 193.964844 227.464844 170.3125 197.289062 173.523438 C 180.316406 175.328125 165.558594 185.371094 150.625 193.632812 C 135.6875 201.894531 128.546875 202.316406 101.867188 203.582031 C 127.394531 207.90625 154.171875 206.324219 178.332031 197.019531 C 188.660156 193.039062 198.777344 187.609375 209.832031 187.113281 " fill-opacity="1" fill-rule="nonzero"/><path fill="#234e52" d="M 149.828125 94.457031 C 154.976562 102.953125 165.542969 106.929688 175.476562 106.796875 C 185.40625 106.667969 194.933594 103.09375 204.1875 99.496094 C 213.445312 95.894531 222.882812 92.167969 232.800781 91.703125 C 246.910156 91.039062 260.703125 97.160156 271.679688 106.046875 C 282.660156 114.9375 291.179688 126.449219 299.144531 138.117188 C 295.09375 120.589844 284.898438 104.546875 270.753906 93.433594 C 256.605469 82.324219 238.597656 76.222656 220.609375 76.445312 C 211.851562 76.554688 203.160156 78.109375 194.40625 78.398438 C 185.644531 78.683594 176.503906 77.582031 169.109375 72.878906 C 162.683594 68.789062 158.160156 62.382812 152.730469 57.042969 C 139.625 44.164062 122.742188 41.253906 105.921875 36.078125 C 118.839844 45.601562 138.414062 53.34375 143.035156 70.148438 C 145.269531 78.269531 145.351562 87.070312 149.828125 94.457031 " fill-opacity="1" fill-rule="nonzero"/><path fill="#289a8f" d="M 224.757812 354.730469 C 213.433594 348.964844 201.859375 343.75 189.695312 340.167969 C 165.25 332.976562 137.652344 332.785156 116.875 349.222656 C 108.21875 356.078125 101.171875 364.996094 96.480469 375 L 99.78125 375 C 106.855469 365.023438 116.964844 357.203125 128.59375 353.40625 C 142.222656 348.957031 157.125 349.917969 171.0625 353.296875 C 185 356.671875 198.25 362.363281 211.679688 367.398438 C 218.992188 370.140625 226.394531 372.679688 233.863281 375 L 263.238281 375 C 256.117188 371.472656 249.109375 367.691406 242.125 363.917969 C 236.371094 360.8125 230.597656 357.699219 224.757812 354.730469 " fill-opacity="1" fill-rule="nonzero"/><path fill="#289a8f" d="M 99.78125 0 L 96.480469 0 C 93.507812 6.34375 91.480469 13.121094 90.597656 20.089844 C 92.316406 12.882812 95.492188 6.046875 99.78125 0 " fill-opacity="1" fill-rule="nonzero"/><path fill="#289a8f" d="M 263.238281 0 L 233.863281 0 C 253.648438 6.144531 273.929688 10.660156 294.53125 12.722656 C 283.707031 9.519531 273.363281 5.015625 263.238281 0 " fill-opacity="1" fill-rule="nonzero"/><path fill="#289a8f" d="M 168.175781 24.792969 C 177.925781 27.613281 187.558594 31.269531 197.179688 34.421875 C 209.53125 38.464844 222.226562 41.699219 235.179688 43.011719 C 241.65625 43.664062 248.195312 43.832031 254.6875 43.34375 C 257.824219 43.109375 261.34375 42.992188 264.375 42.113281 C 267.253906 41.277344 270.15625 39.980469 273.019531 38.996094 C 274.609375 38.453125 276.199219 37.90625 277.785156 37.363281 C 254.609375 40.910156 230.785156 35.269531 209.441406 25.558594 C 197.492188 20.125 186.09375 13.40625 173.695312 9.09375 C 161.292969 4.78125 147.402344 3.03125 135.144531 7.742188 C 124.046875 12.011719 115.246094 21.175781 103.90625 24.75 C 114.960938 23.824219 125.769531 20.664062 136.855469 20.207031 C 147.507812 19.773438 157.90625 21.820312 168.175781 24.792969 " fill-opacity="1" fill-rule="nonzero"/><path fill="#289a8f" d="M 236.628906 286.785156 C 243.855469 287.839844 251.078125 289.507812 258.25 290.8125 C 267.449219 292.484375 276.816406 293.550781 286.179688 293.21875 C 290.863281 293.054688 295.539062 292.535156 300.121094 291.550781 C 302.335938 291.078125 304.832031 290.652344 306.90625 289.726562 C 308.878906 288.851562 310.820312 287.640625 312.765625 286.660156 C 313.847656 286.117188 314.925781 285.570312 316.003906 285.027344 C 299.828125 289.820312 282.289062 288.132812 266.125 283.296875 C 257.074219 280.585938 248.289062 276.914062 239.027344 275.050781 C 229.765625 273.191406 219.6875 273.300781 211.414062 277.855469 C 203.921875 281.984375 198.539062 289.378906 190.800781 293.039062 C 198.59375 291.296875 205.992188 287.988281 213.851562 286.578125 C 221.402344 285.226562 229.015625 285.671875 236.628906 286.785156 " fill-opacity="1" fill-rule="nonzero"/><path fill="#234e52" d="M 39.515625 221.652344 C 49.902344 223.761719 61.203125 223.667969 70.5 218.578125 C 78.917969 213.964844 84.976562 205.683594 93.660156 201.601562 C 84.917969 203.535156 76.609375 207.226562 67.789062 208.785156 C 59.316406 210.285156 50.773438 209.765625 42.242188 208.492188 C 34.132812 207.285156 26.035156 205.398438 17.996094 203.917969 C 12.046875 202.820312 6.039062 201.964844 0 201.488281 L 0 209.917969 C 3.078125 210.613281 6.132812 211.421875 9.140625 212.328125 C 19.285156 215.390625 29.128906 219.535156 39.515625 221.652344 " fill-opacity="1" fill-rule="nonzero"/><path fill="#234e52" d="M 361.667969 201.140625 C 356.414062 201.316406 351.167969 201.886719 346.023438 202.972656 C 343.539062 203.5 340.738281 203.972656 338.40625 205.003906 C 336.191406 205.980469 334.011719 207.332031 331.824219 208.429688 C 330.613281 209.035156 329.398438 209.644531 328.1875 210.25 C 343.332031 205.800781 359.527344 206.417969 375 209.917969 L 375 201.488281 C 370.5625 201.144531 366.117188 200.992188 361.667969 201.140625 " fill-opacity="1" fill-rule="nonzero"/><path fill="#0f5640" d="M 345.285156 63.554688 C 331.023438 60.34375 316.21875 61.191406 301.601562 61.105469 C 286.984375 61.011719 271.878906 59.835938 258.929688 53.054688 C 272.378906 69.324219 293.652344 78.8125 314.746094 77.949219 C 321.136719 77.6875 327.660156 76.550781 333.847656 78.183594 C 346.859375 81.625 353.835938 95.769531 365.246094 102.910156 C 368.277344 104.804688 371.570312 106.140625 375 107.007812 L 375 72.835938 C 366.25 70.433594 357.769531 66.855469 348.988281 64.476562 C 347.761719 64.140625 346.527344 63.832031 345.285156 63.554688 " fill-opacity="1" fill-rule="nonzero"/><path fill="#0f5640" d="M 26.449219 105.542969 C 38.316406 101.605469 48.691406 94.222656 58.691406 86.722656 C 73.0625 75.933594 87.894531 64.152344 106.363281 62.050781 C 74.023438 56.535156 42.078125 79.296875 9.570312 74.851562 C 6.328125 74.410156 3.148438 73.695312 0 72.835938 L 0 107.007812 C 8.558594 109.171875 17.980469 108.351562 26.449219 105.542969 " fill-opacity="1" fill-rule="nonzero"/><path fill="#234e52" d="M 309.25 324.328125 C 295.5625 325.023438 282.777344 331.175781 269.320312 333.757812 C 247.339844 337.972656 223.632812 332.066406 206.199219 318.035156 C 222.691406 336.800781 248.933594 346.488281 273.660156 342.929688 C 286.410156 341.09375 298.753906 336 311.632812 336.261719 C 326.167969 336.558594 339.6875 343.667969 351.660156 351.910156 C 359.535156 357.332031 367.0625 363.339844 375 368.648438 L 375 345.632812 C 352.980469 337.574219 332.488281 323.152344 309.25 324.328125 " fill-opacity="1" fill-rule="nonzero"/><path fill="#234e52" d="M 82.121094 354.226562 C 90.015625 344.46875 99.414062 334.625 111.753906 332.347656 C 102.125 334.125 92.289062 333.402344 82.613281 334.664062 C 65.738281 336.859375 52.324219 349.105469 35.574219 350.664062 C 27.566406 351.410156 19.4375 350.933594 11.597656 349.136719 C 7.671875 348.238281 3.8125 347.027344 0 345.632812 L 0 368.648438 C 3.410156 370.925781 6.898438 373.082031 10.519531 375 L 62.808594 375 C 70.269531 369.414062 76.179688 361.574219 82.121094 354.226562 " fill-opacity="1" fill-rule="nonzero"/><path fill="#234e52" d="M 54.90625 4.675781 C 57.742188 3.425781 60.359375 1.832031 62.808594 0 L 10.519531 0 C 11.28125 0.402344 12.054688 0.800781 12.828125 1.179688 C 25.867188 7.605469 41.601562 10.535156 54.90625 4.675781 " fill-opacity="1" fill-rule="nonzero"/><path fill="#0f5640" d="M 124.058594 302.652344 C 134.382812 303.453125 144.144531 307.527344 154.265625 309.71875 C 170.054688 313.136719 187.511719 312.046875 202.5 305.8125 C 192.226562 307.574219 186.730469 307.691406 176.734375 304.328125 C 164.820312 300.320312 152.730469 296.714844 140.324219 294.585938 C 122.675781 291.554688 104.160156 291.605469 87.277344 297.558594 C 74.242188 302.152344 62.023438 310.246094 48.210938 310.683594 C 37.148438 311.039062 26.644531 306.402344 16.039062 303.226562 C 10.773438 301.648438 5.414062 300.433594 0 299.546875 L 0 314.066406 C 11.8125 319.636719 23.828125 324.820312 36.746094 325.199219 C 67.074219 326.085938 93.804688 300.304688 124.058594 302.652344 " fill-opacity="1" fill-rule="nonzero"/><path fill="#0f5640" d="M 314.296875 302.546875 C 340.996094 301.765625 348.144531 301.636719 363.671875 308.726562 C 367.445312 310.449219 371.210938 312.277344 375 314.066406 L 375 299.546875 C 354.921875 296.265625 334.082031 297.613281 314.296875 302.546875 " fill-opacity="1" fill-rule="nonzero"/><path fill="#234e52" d="M 8.566406 53.628906 C 14.480469 57.808594 22.480469 59.78125 29.082031 56.800781 C 34.824219 54.207031 38.507812 48.953125 43.203125 44.992188 C 52.925781 36.800781 67.886719 40.230469 79.585938 39.835938 C 67.335938 36.003906 55.988281 30.777344 42.792969 33.109375 C 37.320312 34.078125 31.953125 36.0625 26.402344 35.863281 C 20.015625 35.640625 14.066406 32.527344 8.917969 28.738281 C 5.832031 26.464844 2.945312 23.921875 0 21.460938 L 0 45.246094 C 2.515625 48.398438 5.28125 51.304688 8.566406 53.628906 " fill-opacity="1" fill-rule="nonzero"/><path fill="#234e52" d="M 331.808594 6.246094 C 318.71875 7.082031 305.964844 12.519531 296.292969 21.382812 C 305.898438 17.660156 315.773438 14.253906 326.042969 13.445312 C 336.316406 12.636719 347.132812 14.652344 355.339844 20.878906 C 361.113281 25.257812 365.246094 31.390625 369.324219 37.378906 C 371.136719 40.042969 372.988281 42.722656 375 45.246094 L 375 21.460938 C 373.039062 19.820312 371.054688 18.214844 368.96875 16.738281 C 358.246094 9.179688 344.90625 5.410156 331.808594 6.246094 " fill-opacity="1" fill-rule="nonzero"/></g></g></g></svg>